<svg width="48" height="48" viewBox="0 0 48 48" fill="none" xmlns="http://www.w3.org/2000/svg">
  <circle cx="24" cy="24" r="24" fill="white"/>
  <path d="M34.6499 15H13.3499C12.0499 15 10.9999 16.05 10.9999 17.34V31.65C10.9999 32.94 12.0499 34 13.3499 34H34.6499C35.9499 34 36.9999 32.94 36.9999 31.65V17.34C36.9999 16.05 35.9499 15 34.6499 15Z" fill="#ECEFF1"/>
  <path d="M34.6499 15H13.3499C12.0499 15 10.9999 16.05 10.9999 17.34V31.65C10.9999 32.94 12.0499 34 13.3499 34H34.6499C35.9499 34 36.9999 32.94 36.9999 31.65V17.34C36.9999 16.05 35.9499 15 34.6499 15Z" fill="#ECEFF1"/>
  <path d="M24.0004 26.7002L13.3379 18.9002V31.6502C13.3379 32.9402 14.3879 34.0002 15.6879 34.0002H32.3129C33.6129 34.0002 34.6629 32.9402 34.6629 31.6502V18.9002L24.0004 26.7002Z" fill="#CFD8DC"/>
  <path d="M13.35 18.9L24 26.7L34.65 18.9L24 15L13.35 18.9Z" fill="#F44336"/>
</svg>