<svg width="48" height="48" viewBox="0 0 48 48" fill="none" xmlns="http://www.w3.org/2000/svg">
  <circle cx="24" cy="24" r="24" fill="#0F9D58"/>
  <path d="M32 14H16C14.9 14 14 14.9 14 16V32C14 33.1 14.9 34 16 34H32C33.1 34 34 33.1 34 32V16C34 14.9 33.1 14 32 14ZM21.5 30H18V26.5H21.5V30ZM21.5 25H18V21.5H21.5V25ZM21.5 20H18V16.5H21.5V20ZM26 30H22.5V26.5H26V30ZM26 25H22.5V21.5H26V25ZM26 20H22.5V16.5H26V20ZM30.5 30H27V26.5H30.5V30ZM30.5 25H27V21.5H30.5V25ZM30.5 20H27V16.5H30.5V20Z" fill="white"/>
</svg>