<svg width="48" height="48" viewBox="0 0 48 48" fill="none" xmlns="http://www.w3.org/2000/svg">
  <circle cx="24" cy="24" r="24" fill="#25D366"/>
  <path d="M33.95 14.05C32.68 12.759 31.1755 11.7365 29.5223 11.0407C27.8692 10.345 26.0954 9.9898 24.3 10C16.86 10 10.8 16.06 10.8 23.5C10.8 25.93 11.42 28.29 12.6 30.37L10.7 37.5L18 35.62C20 36.7 22.13 37.27 24.3 37.27C31.74 37.27 37.8 31.21 37.8 23.77C37.8 20.1 36.41 16.68 33.95 14.05ZM24.3 34.73C22.35 34.73 20.45 34.18 18.79 33.15L18.38 32.91L14.25 34.02L15.39 30.02L15.11 29.57C13.97 27.84 13.35 25.69 13.35 23.5C13.35 17.46 18.25 12.56 24.29 12.56C27.29 12.56 30.11 13.72 32.22 15.83C33.2993 16.9063 34.1543 18.1839 34.7328 19.586C35.3114 20.988 35.6021 22.4868 35.58 24C35.61 30.1 30.7 34.73 24.3 34.73ZM29.94 26.54C29.58 26.36 27.72 25.45 27.39 25.32C27.06 25.19 26.83 25.13 26.59 25.49C26.35 25.85 25.63 26.69 25.43 26.93C25.23 27.17 25.02 27.2 24.66 27.02C24.3 26.84 23.07 26.43 21.63 25.15C20.51 24.15 19.77 22.91 19.56 22.55C19.35 22.19 19.54 22 19.72 21.82C19.88 21.66 20.08 21.39 20.26 21.19C20.44 20.99 20.5 20.83 20.63 20.6C20.76 20.37 20.7 20.16 20.6 20C20.5 19.84 19.76 17.97 19.46 17.25C19.16 16.53 18.85 16.63 18.64 16.62C18.43 16.61 18.2 16.61 17.96 16.61C17.7206 16.619 17.4878 16.6865 17.2804 16.8066C17.0731 16.9267 16.8973 17.0956 16.77 17.3C16.44 17.66 15.46 18.57 15.46 20.44C15.46 22.31 16.85 24.12 17.03 24.35C17.21 24.58 19.76 28.48 23.62 30.13C24.5 30.52 25.18 30.74 25.71 30.9C26.6 31.17 27.41 31.13 28.05 31.03C28.76 30.92 30.29 30.1 30.59 29.25C30.89 28.4 30.89 27.67 30.8 27.53C30.71 27.39 30.47 27.32 30.11 27.15C29.75 26.98 29.94 26.54 29.94 26.54Z" fill="white"/>
</svg>